<svg width="508" height="212" viewBox="0 0 508 212" fill="none" xmlns="http://www.w3.org/2000/svg">
<path d="M93.3 96.8C93.5 97 93.8 97 93.6 96.7C93.4 96.4 90.9 93.5 91.1 89.8C91.1 88 91.9 86.4 93 85.4C93.9 84.7 95.9 83 99.5 83.8C101.3 84.2 103.3 85.2 105.5 86.9C108.3 89.1 112.5 90 115.4 92.7C116.6 93.8 118 95 118.3 95.4C118.6 95.8 120.5 97.4 120.7 97.8V98.4C121.1 98.5 122.7 97.1 123 96.2C123.3 95.2 122.9 94.2 122.5 93.5C122.1 92.7 120.8 91.1 120.5 90.6C120.2 90.1 119.9 89.3 119.9 89.1C120 89 124.9 87.7 117.9 81C115.8 79 111.8 75.7 107.3 74.2C103.1 72.8 100 72.8 98.9 72.9C98.4 72.9 98.5 73.5 98.7 73.5C98.8 73.5 106.5 74.2 112.4 78.8C118.1 83.2 118.3 85 118 85.6C117.8 86 116.9 86 116.1 85.6C115.2 85.2 114.4 84.8 114.5 84.5C114.6 84.4 115.1 83.6 114.7 82.9C114.4 82.2 113.7 81.9 113 82C112.1 82.2 111.8 82.9 111.8 83.4C111.8 84.6 113 84.6 113 84.9C113 85.1 112.6 87.5 111.3 87.5C108.9 87.5 105.2 84.3 104.4 83.6C100.4 80.3 94.2 79.9 91 82.9C87.5 86.1 88 90.7 89.9 93.2C91.6 95.4 92.7 96.5 93.3 96.8ZM115.3 89C116 88.8 116.7 88.8 116.7 88.8C116.7 88.8 117.5 90.2 117.9 90.9C118.6 91.8 119.5 93 119.9 93.6C120.3 94.2 119.6 94.8 119.5 94.7C119.4 94.6 117.5 92.7 116.8 92C116.1 91.3 113.8 89.5 113.8 89.5C113.8 89.5 114.6 89.2 115.3 89Z" fill="white"/>
<path d="M73.3001 97.6C89.1001 109.2 92.8001 117.6 93.3001 117.3C93.8001 117.1 89.5 107.6 75 95.3C60.4 83.1 46.1 83.3 46.1 83.3C46.1 83.3 45.6001 84.2 45.2001 86C44.8001 87.7 44.8 89.1 44.8 89.1C44.8 89.1 57.5001 86.1 73.3001 97.6Z" fill="white"/>
<path d="M44.9 100.5C44.9 100.5 48.9 100.1 54.7 100.7C60.4 101.3 69.9 104.4 69.9 104.4L71.4 103C71.4 103 62.9 97.4 55.3 96.1C50 95.2 44.6 95.6 44.6 95.6C44.6 95.6 44.4 96.4 44.5 98C44.6 99.5 44.9 100.5 44.9 100.5Z" fill="white"/>
<path d="M46.3 107.4C46.3 107.4 46.4 108.4 47 110.2C47.6 112.1 48 113.2 48 113.2C48 113.2 52.1001 111.9 55.2001 111.3C58.4001 110.8 63.7001 110.4 63.7001 110.4L65.1 108.8C65.1 108.8 59.1 107.6 55.1 107.3C51.1 107 46.3 107.4 46.3 107.4Z" fill="white"/>
<path d="M89.2001 103.5C98.2001 110 101.6 112.3 107.2 115.8C113.8 119.9 111.6 123.1 111.6 123.1C111.5 123.2 109.6 122.1 106.4 121.1C103.3 120.3 99.5001 120.1 99.3001 120.1C99.0001 120.1 98.8001 120.3 99.4001 120.5C99.6001 120.5 104.2 122.4 107.7 124.6C111 126.6 113.2 128.9 113.3 128.7C113.5 128.3 114.9 126 115.3 123.5C115.6 120.7 115.6 117.3 109.9 113.8C106 111.5 103.6 110 91.3001 102.1C79.0001 94.3 81.5001 84.3 82.2001 82.4C82.3001 82 81.8001 81.7 81.6001 82C80.8001 84 77.2001 94.9 89.2001 103.5Z" fill="white"/>
<path d="M393.8 98.2V97.6C394 97.2 395.9 95.5 396.2 95.2C396.6 94.8 397.9 93.6 399.1 92.5C402 89.8 406.2 88.9 409 86.7C411.1 84.9 413.1 83.9 415 83.5C418.6 82.8 420.6 84.4 421.5 85.1C422.6 86.1 423.3 87.8 423.4 89.5C423.5 93.2 421.1 96.1 420.9 96.4C420.8 96.8 421 96.7 421.2 96.6C421.8 96.2 422.9 95.2 424.4 93.1C426.3 90.5 426.8 86 423.3 82.8C420.1 79.8 413.9 80.2 409.9 83.5C409.1 84.1 405.4 87.4 403 87.4C401.7 87.4 401.3 85 401.3 84.8C401.3 84.5 402.4 84.5 402.5 83.3C402.5 82.9 402.2 82.1 401.3 81.9C400.6 81.8 400 82 399.6 82.8C399.3 83.5 399.8 84.3 399.9 84.4C400 84.6 399.2 85.1 398.2 85.5C397.5 85.8 396.6 85.8 396.3 85.5C396 84.9 396.3 83.1 402 78.7C407.9 74.1 415.7 73.4 415.7 73.4C415.9 73.4 416 72.8 415.5 72.8C414.4 72.7 411.2 72.7 407.1 74.1C402.6 75.6 398.6 78.9 396.6 80.8C389.5 87.5 394.5 88.8 394.5 88.9C394.6 89 394.2 89.8 394 90.3C393.7 90.8 392.5 92.4 392 93.2C391.6 93.9 391.2 94.9 391.5 95.9C391.7 96.9 393.3 98.3 393.8 98.2ZM394.4 93.4C394.9 92.7 395.7 91.6 396.3 90.7C396.8 90.1 397.6 88.6 397.6 88.6C397.6 88.6 398.2 88.6 399 88.8C399.7 89 400.4 89.3 400.4 89.3C400.4 89.3 398.2 91.1 397.5 91.8C396.8 92.5 394.9 94.4 394.8 94.5C394.8 94.6 394 94 394.4 93.4Z" fill="white"/>
<path d="M421.1 117.2C421.5 117.5 425.2 109 441.1 97.5C456.9 85.9 469.6 89 469.6 89C469.6 89 469.6 87.6 469.2 85.9C468.8 84.1 468.2 83.2 468.2 83.2C468.2 83.2 454 83 439.5 95.2C424.9 107.5 420.7 117.1 421.1 117.2Z" fill="white"/>
<path d="M459.1 95.9C451.6 97.2 443 102.8 443 102.8L444.5 104.2C444.5 104.2 454 101 459.7 100.5C465.5 99.9 469.4 100.3 469.4 100.3C469.4 100.3 469.7 99.4 469.8 97.8C470 96.2 469.8 95.4 469.8 95.4C469.8 95.4 464.4 95 459.1 95.9Z" fill="white"/>
<path d="M459.2 107.2C455.2 107.4 449.2 108.7 449.2 108.7L450.5 110.3C450.5 110.3 455.9 110.6 459.1 111.2C462.3 111.7 466.3 113 466.3 113C466.3 113 466.7 112 467.4 110C468 108.2 468.1 107.2 468.1 107.2C468.1 107.2 463.3 106.8 459.2 107.2Z" fill="white"/>
<path d="M422.9 102.1C410.6 110 408.1 111.4 404.3 113.8C398.6 117.2 398.6 120.7 398.9 123.4C399.3 126 400.7 128.2 400.9 128.6C401 128.9 403.2 126.6 406.5 124.6C410.1 122.4 414.7 120.5 414.8 120.4C415.4 120.1 415.2 120 414.9 120C414.6 120 410.9 120.1 407.8 121C404.6 121.9 402.7 123.1 402.6 123C402.6 123 400.5 119.9 407.1 115.7C412.7 112.1 416.1 109.8 425.1 103.4C437.2 94.8 433.5 83.9 432.7 82C432.5 81.7 431.9 82 432 82.4C432.7 84.3 435.3 94.3 422.9 102.1Z" fill="white"/>
<path d="M52 144.8C51.2 143.3 49.6 140.1 48.4 136.7C46.7 132.2 46.2 130.2 45.7 127.6C45.2 125.1 44.5 118.9 44.8 118.9C45.2 118.9 46 119.1 47.6 120.1C49.2 121.1 49.5 121.6 49.7 121.5C49.9 121.5 53.6 120.1 55 119.9C56.3 119.7 56.6 119.5 57.2 119.4C57.8 119.3 57.8 119.4 57.9 119.1C58 118.8 58.4 118.2 58.7 117.7C59.1 117.1 59.7 116.2 59.6 116.2C59.6 116.1 54.7 117 53.4 117.2C52.4 117.5 49.4 118.4 49.3 118.3C49.2 118.2 46.2 115.3 45.1 114.5C43.6 113.4 41.2 111.9 41.2 111.9C40.2 111.4 39.1 110.9 39 111C39 111 38.8 111.6 39 113.5C39.1 115.4 39.5 119 40 121.6C40.6 124.3 41.8 128.7 42.5 130.6C43.3 132.6 44.8 136.4 45.8 138.6C46.7 140.6 48.1 143.2 48.7 144.5M120.7 144.8C123.2 141.2 127.7 133.8 128.4 126.5C128.8 117.4 116.1 111.9 116.1 111.9C115.8 111.7 115.6 111.9 116 112.2C117.4 113.1 126.8 119.6 125.6 125.9C124.4 132.1 117.5 141.9 115.5 144.8M334.4 144.8C334.6 143.6 334.8 142.4 335 141.2L351.9 143.1L352.4 139L335.5 137.1C335.6 135.5 335.7 134 335.7 132.4H369V128.3H335.6C335.5 126.7 335.4 125.2 335.3 123.7L352.3 121.8L351.8 117.7L334.9 119.6C334.7 118.1 334.4 116.5 334.2 115L366.7 107.6L365.8 103.5L333.3 110.9C332.9 109.4 332.5 107.9 332.1 106.4L348.1 100.8L346.7 96.9L330.7 102.5C330.2 101 329.6 99.6 328.9 98.1L358.8 83.7L357 80L327.1 94.4C326.4 93 325.6 91.6 324.9 90.3L339.1 81.3L336.9 77.8L322.7 86.7C321.8 85.4 321 84.1 320 82.9L345.8 62.3L343.2 59.1L317.4 79.7C316.4 78.5 315.4 77.3 314.3 76.2L326 64.4L323.1 61.5L311.5 73C310.4 71.9 309.2 70.8 308 69.8L328.5 44.1L325.2 41.5L304.8 67.1C303.5 66.1 302.3 65.2 301 64.3L309.7 50.5L306.2 48.3L297.5 62.1C296.1 61.3 294.8 60.5 293.4 59.8L307.5 30.5L303.8 28.7L289.7 58C288.2 57.4 286.8 56.7 285.3 56.1L290.6 40.8L286.7 39.4L281.4 54.6C279.9 54.1 278.4 53.7 276.9 53.3L284.1 21.7L280.1 20.8L272.9 52.4C271.4 52.1 269.8 51.8 268.2 51.6L269.9 35.6L265.8 35.2L264 51.1C262.4 50.9 260.8 50.8 259.3 50.8V18.5H255.1V50.9C253.5 50.9 251.9 51 250.4 51.2L248.6 35.3L244.5 35.8L246.3 51.7C244.7 51.9 243.1 52.2 241.6 52.5L234.4 20.9L230.4 21.8L237.6 53.4C236.1 53.8 234.5 54.3 233 54.8L227.7 39.5L223.8 40.9L229.1 56.2C227.6 56.8 226.2 57.4 224.7 58.1L210.6 28.8L206.9 30.6L221 60C219.6 60.7 218.2 61.5 216.9 62.3L208.2 48.5L204.7 50.7L213.4 64.6C212.1 65.5 210.8 66.4 209.6 67.4L189.2 41.8L186 44.4L206.5 70.1C205.3 71.1 204.1 72.2 203 73.3L191.3 61.6L188.4 64.5L199.9 76C198.9 77.2 197.8 78.3 196.8 79.6L171 59L168.4 62.2L194.3 82.8C193.4 84 192.5 85.4 191.6 86.7L177.4 77.8L175.2 81.3L189.4 90.3C188.6 91.7 187.9 93 187.2 94.4L157.3 80L155.5 83.7L185.5 98.1C184.9 99.6 184.3 101 183.7 102.5L167.7 96.9L166.3 100.8L182.3 106.4C181.8 107.9 181.4 109.4 181 110.9L148.5 103.5L147.6 107.6L180.1 115.1C179.8 116.6 179.6 118.1 179.4 119.6L162.4 117.7L162 121.8L179 123.7C178.9 125.2 178.8 126.7 178.8 128.3H145.4V132.4H178.8C178.9 134 178.9 135.5 179 137.1L162 139L162.4 143.1L179.4 141.2C179.6 142.4 179.8 143.6 180 144.8M399.1 144.8C397.2 142.2 390 132.1 388.9 125.8C387.6 119.5 397.1 113 398.5 112.1C398.9 111.9 398.7 111.6 398.5 111.8C398.4 111.8 385.7 117.3 386.1 126.4C386.7 133.8 391.4 141.3 393.9 144.9M465.7 144.8C466.3 143.6 467.8 140.8 468.7 138.8C469.7 136.5 471.2 132.8 471.9 130.8C472.6 128.9 473.9 124.4 474.4 121.8C475 119.2 475.3 115.5 475.5 113.6C475.7 111.6 475.5 111.1 475.5 111.1C475.4 111 474.3 111.4 473.3 112C473.3 112 470.9 113.5 469.4 114.5C468.2 115.4 465.2 118.2 465.2 118.4C465.1 118.5 462.2 117.5 461.1 117.3C459.8 117.1 455 116.2 454.9 116.3C454.8 116.3 455.5 117.2 455.8 117.7C456.2 118.2 456.5 118.9 456.6 119.2C456.7 119.5 456.7 119.4 457.3 119.5C457.9 119.6 458.2 119.7 459.5 120C460.8 120.3 464.6 121.6 464.8 121.6C465 121.6 465.2 121.2 466.8 120.2C468.4 119.2 469.3 119 469.6 118.9C469.9 118.8 469.3 125.1 468.8 127.6C468.3 130.1 467.8 132.2 466.1 136.7C464.8 140.1 463.1 143.5 462.4 144.9" fill="white"/>
<path d="M330.4 144.7C331.2 140.7 331.5 134.9 331.5 130.2C331.5 88.7 298.1 54.9 257.2 54.9C216.2 54.9 182.9 88.7 182.9 130.2C182.9 134.7 183.5 140.5 184.4 144.7H330.4Z" fill="url(#paint0_radial_330_7777)"/>
<path d="M170.6 189.1C167.8 188.7 167.7 188.5 165.6 183.5L157.4 163.7C156.9 162.4 156.4 161.1 155.9 159.7C155.1 157.4 154.9 157.1 154.3 157.1C153.8 157.1 153.7 157.3 153 159.4C153 159.6 152.7 160.1 152.5 160.9C152.3 161.3 152.2 161.7 152 162.2L150.9 164.9L150 167.6C148.1 172.8 147.9 173.2 146.4 177C144.4 182.1 143.5 184.2 142.6 186.2C141.5 188.6 141.1 188.9 139 189.1C137.8 189.2 137.5 189.4 137.5 190C137.5 190.5 137.8 190.7 138.3 190.7C138.8 190.7 138.9 190.7 139.3 190.7C140.5 190.7 141.7 190.6 142.8 190.6C143.6 190.6 144.7 190.7 145.7 190.7H146.4L147.9 190.8H148.4C149.3 190.8 149.7 190.5 149.7 190.1C149.7 189.5 149.2 189.2 147.7 189.2C145.9 189.2 145.2 188.8 145.2 187.8C145.2 187.4 145.4 186.5 145.7 185.5L147.5 179.9C147.9 178.6 147.9 178.6 149.5 178.6H155.8C157.3 178.6 157.4 178.6 158 180.2L160.2 186.5C160.5 187.2 160.6 187.7 160.6 188.1C160.6 188.8 160.1 189.1 158.8 189.2C157.4 189.4 156.9 189.7 156.9 190.2C156.9 190.7 157.3 190.9 158 190.9C158.2 190.9 158.6 190.9 158.8 190.9C162.3 190.6 162.5 190.6 164.3 190.6C166.1 190.6 168.3 190.7 169.4 190.8C169.8 190.8 170.3 190.9 170.5 190.9C171.2 190.9 171.6 190.6 171.6 190.2C171.3 189.4 171 189.1 170.6 189.1ZM156.1 176.1C156.1 176.3 155.8 176.5 154.9 176.5H149.9C148.9 176.5 148.6 176.3 148.6 176C148.6 175.8 148.7 175.4 148.8 175L152 166.2L152.3 166.8L155.7 175.2C156.2 176.1 156.1 176 156.1 176.1Z" fill="white"/>
<path d="M204.9 189.1C202.1 188.8 202 188.8 200.2 185.6L195.2 176.6C194.2 175 193.7 174.3 192.7 173.7C197.5 172.6 199.8 170.1 199.8 165.8C199.8 160.8 196 157.6 189.7 157.6C189.6 157.6 189.4 157.6 189.1 157.6C188.3 157.6 187.1 157.7 185.9 157.7C184.2 157.7 182.7 157.8 181.2 157.8C179.8 157.8 178.9 157.8 177.5 157.7C175.6 157.6 175.9 157.6 175.5 157.6H175.2C174.4 157.6 174.1 157.7 174.1 158.3C174.1 158.9 174.5 159 175.9 159.2C178 159.3 178.5 159.9 178.5 162.9V185.2C178.5 188.1 178.1 188.8 175.9 188.9C174.5 189 174.1 189.2 174.1 189.8C174.1 190.4 174.3 190.5 175.2 190.5H175.5C175.7 190.5 175.9 190.5 176.1 190.5C179.3 190.4 180.1 190.4 181.3 190.4C182.4 190.4 183.8 190.4 185.4 190.5C187.3 190.6 187 190.6 187.3 190.6H187.6C188.4 190.6 188.7 190.4 188.7 189.9C188.7 189.3 188.3 189.1 186.9 189C184.7 188.9 184.2 188.2 184.2 185.3V175.8C184.2 174.8 184.4 174.7 185.3 174.7C187.5 174.7 187.8 174.9 189 177.1L189.1 177.2L195.3 189C196 190.3 196.3 190.5 197.1 190.5L200.5 190.4C200.6 190.4 200.9 190.4 201.4 190.4C203 190.4 204.1 190.5 204.2 190.5C204.5 190.5 204.7 190.5 205 190.5C205.4 190.5 205.7 190.3 205.7 189.8C205.6 189.6 205.2 189.2 204.9 189.1ZM189.1 173.1C188.4 173.2 187.7 173.3 186.9 173.3C184.3 173.3 184.2 173.3 184.2 171.4V162.6C184.2 159.8 184.7 159.2 186.7 159.2C187.5 159.2 188.3 159.3 189.1 159.6C192.1 160.4 193.9 163 193.9 166.7C193.9 170.4 192.3 172.5 189.1 173.1Z" fill="white"/>
<path d="M263.2 157.3H263.1C253 157.4 245.3 164.7 245.3 174.1C245.3 183.3 253.3 190.8 263.1 190.9H263.2C272.8 190.9 280.9 183 280.9 173.7C280.9 164.6 273 157.3 263.2 157.3ZM263.5 189.6C263.4 189.6 263.2 189.6 263.1 189.6C256.7 189.3 251.6 182 251.6 173C251.6 164.5 256.1 158.7 262.6 158.7C262.8 158.7 262.9 158.7 263.1 158.7C269.8 159 274.6 165.5 274.6 174.1C274.6 182.9 269.8 189.6 263.5 189.6Z" fill="white"/>
<path d="M89.7 159.3C91.2 159.2 91.6 159 91.6 158.4C91.6 157.8 91.3 157.7 90.5 157.7C90.2 157.7 89.5 157.7 88.3 157.8C86.8 157.8 85.7 157.9 84.6 157.9C82.7 157.9 82.1 157.9 80.3 157.8C79.1 157.7 78.3 157.7 78.1 157.7C77.3 157.7 77 157.8 77 158.4C77 159 77.4 159.1 78.8 159.3C81 159.4 81.4 160 81.4 163V170.4C81.4 171.9 81.3 172.1 79.5 172.1H68.4C66.7 172.1 66.7 172.1 66.7 170.4V163C66.7 160 67.2 159.4 69.3 159.3C70.8 159.2 71.2 159 71.2 158.4C71.2 157.8 70.9 157.7 70.1 157.7H69.8C69.6 157.7 69.4 157.7 69.3 157.7C65.8 157.8 65.6 157.8 63.8 157.8C62.9 157.8 61.3 157.8 60 157.7C58.1 157.6 58.4 157.6 58 157.6H57.7C56.9 157.6 56.6 157.7 56.6 158.3C56.6 158.9 57 159 58.5 159.2C60.6 159.3 61.1 159.9 61.1 162.9V185.2C61.1 188.1 60.7 188.8 58.5 188.9C57 189 56.6 189.2 56.6 189.8C56.6 190.4 56.9 190.5 57.7 190.5C58 190.5 58.7 190.5 59.9 190.4C61.4 190.4 62.4 190.3 63.6 190.3C65.4 190.3 66.1 190.3 67.8 190.4C69 190.5 69.7 190.5 70 190.5C70.8 190.5 71.1 190.3 71.1 189.8C71.1 189.2 70.7 189 69.2 188.9C67.1 188.8 66.6 188.1 66.6 185.2V175C66.6 173.8 66.6 173.8 68.6 173.8H79.7C81.2 173.8 81.4 173.9 81.4 175.1V185.2C81.4 188.1 81 188.8 78.8 188.9C77.4 189 77 189.2 77 189.8C77 190.4 77.3 190.5 78.1 190.5H78.4C78.6 190.5 78.8 190.5 79 190.5C82.4 190.4 82.7 190.4 84.3 190.4C85.6 190.4 86.6 190.4 88.3 190.5C90.2 190.6 89.9 190.6 90.3 190.6H90.6C91.4 190.6 91.7 190.4 91.7 189.9C91.7 189.3 91.3 189.1 89.8 189C87.6 188.9 87.2 188.2 87.2 185.3V163C87.1 160 87.5 159.5 89.7 159.3Z" fill="white"/>
<path d="M119.9 182.3C119.6 182.3 119.3 182.5 119.1 183C116.5 188.1 115.1 188.9 110.4 188.9C106.1 188.9 105.2 188.2 105.2 184.7V175.5C105.2 174 105.3 173.9 108.4 173.9C113 173.9 113.9 174.6 114.9 178.1C115.1 179 115.5 179.4 115.9 179.4C116.3 179.4 116.6 179 116.5 178.5L116.3 174.5C116.3 174.5 116.3 173.9 116.4 173.1L116.5 172L116.6 170.9V169.8C116.7 169.1 116.8 168.5 116.8 168.5C116.8 167.9 116.6 167.7 116.2 167.7C115.8 167.7 115.6 167.9 115.5 168.5C114.3 171.9 113.3 172.4 108 172.4C105.5 172.4 105.3 172.2 105.3 170.3V162.5C105.3 159.6 105.5 159.2 108.2 159.2C110.7 159.2 113.1 159.5 114.4 160C116.2 160.7 116.7 161.3 118 164C118.3 164.7 118.6 165 118.9 165C119.3 165 119.5 164.7 119.5 164V159.2C119.5 157.9 119.4 157.7 118.8 157.7C118.6 157.7 118.1 157.7 117.7 157.7C116.7 157.8 115.7 157.8 114.5 157.8H99.4C99.2 157.8 98.8 157.8 98.3 157.8C97.9 157.7 97.4 157.7 96.9 157.7C96.6 157.7 96.2 157.7 96.1 157.7C95.3 157.7 95 157.8 95 158.4C95 159 95.4 159.1 96.8 159.3C99 159.4 99.4 160 99.4 163V185.3C99.4 188.2 99 188.9 96.8 189C95.3 189.1 95 189.3 95 189.9C95 190.5 95.2 190.6 96.1 190.6C96.2 190.6 96.6 190.6 96.9 190.6C97.4 190.6 97.9 190.6 98.3 190.5C98.8 190.5 99.2 190.5 99.4 190.5H117.2C119.7 190.5 119.5 190.6 119.8 187.9C119.9 186.7 120 185.8 120.1 185C120.3 184.2 120.3 183.4 120.3 183C120.4 182.7 120.2 182.3 119.9 182.3Z" fill="white"/>
<path d="M232.8 155.4C232.5 155.4 232.3 155.6 232.1 156.2C231.8 156.9 231.4 157.3 231 157.4C230.2 157.6 228.1 157.8 226.1 157.8H209.2C207.6 157.8 207.1 157.5 206.9 156.3C206.8 155.7 206.7 155.6 206.3 155.6C205.9 155.6 205.7 155.8 205.5 156.5L203.3 163.9C203.2 164.3 203.2 164.5 203.2 164.8C203.2 165.1 203.5 165.4 203.9 165.4C204.3 165.3 204.6 165.2 205 164.3C205.7 162.9 207.5 160.9 208.7 160.3C209.8 159.5 211.3 159.3 214.5 159.3C215.5 159.3 215.8 159.6 215.8 160.7V185.2C215.8 188.1 215.4 188.8 213.2 188.9C211.7 189 211.3 189.2 211.3 189.8C211.3 190.4 211.6 190.5 212.4 190.5C212.7 190.5 213.2 190.5 214.6 190.4C216 190.3 217.5 190.3 218.3 190.3C219.5 190.3 220.9 190.4 222.6 190.4C224 190.5 224.5 190.5 224.8 190.5C225.6 190.5 225.9 190.3 225.9 189.8C225.9 189.2 225.5 189 224 188.9C221.8 188.8 221.3 188.1 221.3 185.2V161.2C221.3 159.3 221.2 159.4 225 159.4C229.3 159.4 230.7 160.5 231.4 164.4C231.5 165.3 231.8 165.6 232.2 165.6C232.8 165.6 233 165.2 233.1 164L233.4 157.5L233.5 156.9C233.6 156 233.3 155.4 232.8 155.4Z" fill="white"/>
<path d="M345.2 182.6C344.8 182.6 344.6 182.7 344.4 183.2C342.3 187.1 339.5 188.9 335.4 188.9C332.2 188.9 331.1 187.6 331.1 183.8V163C331.1 160 331.5 159.4 333.8 159.3C335.2 159.2 335.6 159 335.6 158.4C335.6 157.8 335.3 157.7 334.5 157.7C334.2 157.7 333.6 157.7 332.3 157.8C330.7 157.9 329.2 157.9 328.6 157.9C327.4 157.9 326.2 157.9 324.4 157.8C323.1 157.7 322.5 157.7 322.1 157.7C321.4 157.7 321 157.8 321 158.4C321 159 321.4 159.1 322.9 159.3C325 159.4 325.5 160 325.5 163V185.3C325.5 188.2 325.1 188.9 322.9 189C321.4 189.1 321 189.3 321 189.9C321 190.5 321.4 190.6 322.1 190.6C322.3 190.6 322.7 190.6 323 190.6C323.5 190.6 324 190.6 324.4 190.5C325 190.5 325.3 190.5 325.5 190.5H341.8C342.2 190.5 342.6 190.5 342.9 190.5C343.2 190.6 343.6 190.6 343.7 190.6C344.6 190.6 344.9 190.3 345.1 189.4C345.2 187.2 345.3 186.4 345.6 184.7C345.7 184.2 345.7 183.7 345.7 183.4C345.7 182.9 345.5 182.6 345.2 182.6Z" fill="white"/>
<path d="M360.7 159.3C362.1 159.2 362.6 159 362.6 158.4C362.6 157.8 362.3 157.7 361.5 157.7H361.3C361.1 157.7 360.9 157.7 360.7 157.7C357.4 157.8 356.9 157.8 355.6 157.8C354.1 157.8 353.1 157.8 351.4 157.7C349.5 157.6 349.8 157.6 349.5 157.6H349.2C348.4 157.6 348.1 157.7 348.1 158.3C348.1 158.9 348.5 159 350 159.2C352.1 159.3 352.6 159.9 352.6 162.9V185.2C352.6 188.1 352.1 188.8 350 188.9C348.5 189 348.1 189.2 348.1 189.8C348.1 190.4 348.4 190.5 349.2 190.5H349.5C349.7 190.5 349.8 190.5 350.1 190.5C353.1 190.4 354 190.4 355.3 190.4C356.4 190.4 358 190.4 359.4 190.5C361.3 190.6 361 190.6 361.4 190.6H361.6C362.4 190.6 362.7 190.4 362.7 189.9C362.7 189.3 362.3 189.1 360.8 189C358.6 188.9 358.1 188.2 358.1 185.3V163C358 160 358.5 159.5 360.7 159.3Z" fill="white"/>
<path d="M397.2 157.6C396.7 157.6 396.1 157.7 395.3 157.7C394.4 157.8 393.5 157.8 392.5 157.8C391.6 157.8 390.5 157.8 389.4 157.7C388.8 157.6 388 157.6 387.8 157.6C387 157.6 386.6 157.8 386.6 158.3C386.6 158.9 387 159 388.8 159.1C390.2 159.2 391 159.7 391 160.8C391 161.4 390.7 162.5 390.3 163.6L383.2 181.8L374.9 162.3C374.4 161.3 374.2 160.6 374.2 160.3C374.1 159.6 374.9 159.2 376.1 159C378.2 158.8 378.2 158.8 378.2 158.2C378.2 157.7 377.9 157.5 377.1 157.5C376.8 157.5 375.8 157.5 375 157.6C373.9 157.7 373 157.7 373 157.7C364.3 157.5 366.9 157.5 364.8 157.5H364.3C363.8 157.5 363.5 157.7 363.5 158.2C363.5 158.7 363.8 158.9 365.2 159C366.9 159.2 367.5 159.7 368.6 162.5L380.1 189.9C380.4 190.7 380.7 191 381 191C381.4 191 381.7 190.6 381.9 190L392.4 163.8C393.8 160.2 394.5 159.3 395.8 159.1C398 158.8 398 158.8 398 158.1C398 157.8 397.7 157.6 397.2 157.6Z" fill="white"/>
<path d="M411.6 159.3C413.1 159.2 413.5 159 413.5 158.4C413.5 157.8 413.2 157.7 412.4 157.7H412.1C411.8 157.7 411.7 157.7 411.5 157.7C408.2 157.8 407.7 157.8 406.4 157.8C404.9 157.8 404 157.8 402.2 157.7C400.3 157.6 400.7 157.6 400.3 157.6H400C399.2 157.6 398.9 157.7 398.9 158.3C398.9 158.9 399.4 159 400.8 159.2C402.9 159.3 403.4 159.9 403.4 162.9V185.2C403.4 188.1 402.9 188.8 400.8 188.9C399.4 189 398.9 189.2 398.9 189.8C398.9 190.4 399.3 190.5 400 190.5H400.3C400.5 190.5 400.7 190.5 400.9 190.5C403.9 190.4 404.7 190.4 406.1 190.4C407.2 190.4 408.7 190.4 410.1 190.5C412 190.6 411.7 190.6 412.1 190.6H412.4C413.2 190.6 413.5 190.4 413.5 189.9C413.5 189.3 413.1 189.1 411.6 189C409.4 188.9 409 188.2 409 185.3V163C409 160 409.5 159.5 411.6 159.3Z" fill="white"/>
<path d="M451.5 157.8C451.3 157.8 450.7 157.8 450.1 157.9C449.2 157.9 447.9 158 446.6 158C445.2 158 443.9 157.9 442.9 157.9C442.4 157.9 441.9 157.9 441.7 157.9C440.9 157.9 440.5 158.1 440.5 158.6C440.5 159.2 441 159.4 442.9 159.5C445.2 159.6 445.5 160.3 445.6 165.9L445.8 182.1L428 159.2C427 157.8 427 157.8 426.1 157.8L422.7 157.9L418.1 157.8C417 157.8 416.6 157.9 416.6 158.5C416.6 159.1 417.1 159.3 418.6 159.3C421 159.4 421.3 159.9 421.3 163.9V181.3C421.3 188.5 421.2 188.8 418.8 189.2C416.6 189.5 416.4 189.6 416.4 190.2C416.4 190.6 416.7 190.9 417.3 190.9C417.6 190.9 418.5 190.8 419.3 190.7C420.5 190.6 421.8 190.5 423 190.5C424 190.5 425 190.6 426.1 190.6C426.7 190.6 427.4 190.7 427.7 190.7C428.5 190.7 428.8 190.4 428.8 190C428.8 189.5 428.5 189.3 427.9 189.3C423.6 188.9 423.5 188.8 423.5 180.8L423.3 162.7L445.5 190.6C446.2 191.5 446.7 191.9 447.1 191.9C447.8 191.9 448 191.4 448 190.3L447.9 163C447.9 160.4 448.3 159.9 450.6 159.8C452.2 159.7 452.6 159.5 452.6 158.8C452.5 158 452.2 157.8 451.5 157.8Z" fill="white"/>
<path d="M490 175C490 174.7 489.7 174.5 489.2 174.5C489 174.5 488 174.5 487.2 174.6C486.3 174.7 484.9 174.8 483.6 174.8C481.4 174.8 479.4 174.7 476.8 174.6C476.3 174.6 475.6 174.5 475.5 174.5C474.7 174.5 474.4 174.7 474.4 175.1C474.4 175.8 474.8 175.9 476.5 176C479 176.1 479.8 176.8 479.8 179.1V183.6C479.8 185.8 479.5 187.5 478.9 188.3C478.3 189.1 476.5 189.6 474.4 189.6C467.2 189.6 461.7 183.2 461.7 174.5C461.7 165.9 467.5 158.7 474.3 158.7C478.3 158.7 481 160.4 483 164C483.5 164.9 483.8 165.3 484.3 165.2C484.7 165.2 485 164.8 485 164.3C485 163.8 484.8 163 484.6 161.3C484.3 159.3 484.3 159.3 483.9 159C483.1 158.2 478.9 157.4 475.7 157.4C470.4 157.4 465.9 158.7 462.4 161.2C457.9 164.3 455.2 169.4 455.2 174.4C455.2 178.6 457.1 183.2 460.1 186.2C463.4 189.4 467.8 191 473.2 191C477.6 191 482.4 189.8 485.1 187.9C485.9 187.4 485.9 187.4 485.9 184.6C485.9 183.8 485.8 182.6 485.8 181.7C485.8 180.1 485.7 178.6 485.7 178.3C485.7 176.6 486.3 176 488.3 175.9C489.6 175.8 490.1 175.6 490 175Z" fill="white"/>
<path d="M305.1 157.7C304.9 157.7 304 157.7 303.2 157.8C302.4 157.8 301.6 157.8 300.9 157.8H286.3C286.1 157.8 285.7 157.8 285.2 157.8C284.8 157.7 284.3 157.7 283.8 157.7C283.5 157.7 283.1 157.7 282.9 157.7C282.1 157.7 281.8 157.8 281.8 158.4C281.8 159 282.2 159.1 283.7 159.3C285.8 159.4 286.3 160 286.3 163V185.3C286.3 188.2 285.8 188.9 283.7 189C282.2 189.1 281.8 189.3 281.8 189.9C281.8 190.5 282.1 190.6 282.9 190.6H283.2C283.4 190.6 283.6 190.6 283.8 190.6C286.8 190.5 287.7 190.5 289.1 190.5C290.2 190.5 291.8 190.5 293.1 190.6C295.1 190.7 294.7 190.7 295.1 190.7H295.3C296.1 190.7 296.5 190.5 296.5 190C296.5 189.4 296.1 189.2 294.5 189.1C292.4 189 291.9 188.3 291.9 185.4V176.4C291.9 174 291.9 174 295.6 174C299 174 300.6 174.8 301.2 176.8L301.4 177.5L301.5 178.1C301.9 179.1 301.7 178.8 301.8 179C302 179.4 302.3 179.7 302.6 179.7C303 179.7 303.3 179.4 303.3 178.8C303.3 178.5 303.2 177.4 303.1 176.3C303 175.3 303 175 303 174.2L303.2 168.6C303.2 168 303 167.7 302.6 167.7C302.2 167.7 302 168 301.8 168.6C300.9 171.5 299.7 172.4 296.5 172.4C291.8 172.4 292.1 172.6 292.1 169.3V162.2C292.1 159.9 292.6 159.5 294.7 159.5C300.1 159.5 302.9 160.5 303.8 162.8C304.9 165.2 304.9 165.3 305.5 165.3C305.9 165.3 306.1 164.9 306.1 164.2V158.7C306 157.8 305.8 157.7 305.1 157.7Z" fill="white"/>
<path d="M53.8 155.5C53.4 155.5 53.2 155.7 53 156.2C52.7 156.9 52.4 157.3 51.9 157.5C51.1 157.7 49 157.9 47 157.9H30C28.4 157.9 27.9 157.6 27.7 156.4C27.6 155.8 27.4 155.7 27.1 155.7C26.7 155.7 26.5 155.9 26.3 156.6L24.2 164C24.1 164.4 24 164.6 24 164.9C24 165.2 24.3 165.6 24.7 165.5C25.2 165.5 25.4 165.2 25.8 164.4C26.6 163.1 28.3 161.1 29.4 160.4C30.5 159.7 32 159.4 35.3 159.4C36.2 159.4 36.6 159.7 36.6 160.8V185.3C36.6 188.2 36.1 188.8 34 189C32.5 189.1 32.2 189.3 32.2 189.9C32.2 190.4 32.5 190.6 33.3 190.6C33.6 190.6 34.1 190.6 35.5 190.5C36.9 190.4 38.5 190.3 39.2 190.3C40.4 190.3 41.8 190.3 43.4 190.5C44.8 190.6 45.3 190.6 45.6 190.6C46.4 190.6 46.7 190.4 46.7 189.9C46.7 189.3 46.3 189.1 44.8 189C42.6 188.8 42.2 188.2 42.2 185.3V161.3C42.2 159.3 42 159.4 45.9 159.4C50.2 159.4 51.6 160.5 52.4 164.5C52.5 165.3 52.7 165.6 53.2 165.6C53.7 165.6 54 165.2 54 164L54.3 157.6V157C54.5 156.1 54.3 155.5 53.8 155.5Z" fill="white"/>
<path d="M498.3 144.8H15.8V148H498.3V144.8Z" fill="white"/>
<path d="M498.3 198H15.8V201.2H498.3V198Z" fill="white"/>
<path d="M475 76.8C481.738 76.8 487.2 71.3379 487.2 64.6C487.2 57.8621 481.738 52.4 475 52.4C468.262 52.4 462.8 57.8621 462.8 64.6C462.8 71.3379 468.262 76.8 475 76.8Z" stroke="white" stroke-miterlimit="2.6131"/>
<path d="M471.9 63.6H473.8C475 63.6 475.8 63.5 476.1 63.4C476.4 63.3 476.6 63.1 476.8 62.9C477 62.7 477.1 62.3 477.1 62C477.1 61.6 477 61.2 476.8 61C476.6 60.7 476.3 60.6 475.9 60.5C475.7 60.5 475.1 60.5 474.1 60.5H472.1V63.6H471.9ZM469.4 70.8V58.4H474.7C476 58.4 477 58.5 477.6 58.7C478.2 58.9 478.7 59.3 479 59.9C479.4 60.5 479.5 61.1 479.5 61.9C479.5 62.8 479.2 63.6 478.7 64.2C478.2 64.8 477.3 65.2 476.2 65.4C476.7 65.7 477.2 66.1 477.5 66.4C477.9 66.8 478.3 67.5 478.9 68.4L480.4 70.8H477.4L475.6 68.1C475 67.1 474.5 66.5 474.3 66.3C474.1 66 473.8 65.9 473.5 65.8C473.2 65.7 472.8 65.7 472.2 65.7H471.7V70.9H469.4V70.8Z" fill="white"/>
<defs>
<radialGradient id="paint0_radial_330_7777" cx="0" cy="0" r="1" gradientUnits="userSpaceOnUse" gradientTransform="translate(226.602 65.8458) scale(100.471 100.471)">
<stop stop-color="#FFF100"/>
<stop offset="1" stop-color="#F26F21"/>
</radialGradient>
</defs>
</svg>
