<svg width="30" height="30" viewBox="0 0 30 30" fill="none" xmlns="http://www.w3.org/2000/svg">
<path d="M19.4994 16.0116L18.9538 15.1735L18.9399 15.1826L18.9263 15.1921L19.4994 16.0116ZM19.4994 14.2914L18.9064 15.0966L18.9511 15.1295L18.999 15.1572L19.4994 14.2914ZM12.6051 9.21477L13.1981 8.40953L13.1699 8.38875L13.1402 8.37L12.6051 9.21477ZM11.1598 9.97303L12.1598 9.97013L12.1598 9.96138L12.1596 9.95262L11.1598 9.97303ZM11.1887 19.9452L10.1887 19.9481L10.1888 19.9764L10.1905 20.0046L11.1887 19.9452ZM12.687 20.7762L13.1712 21.6511L13.2172 21.6257L13.2602 21.5956L12.687 20.7762ZM15.0002 25.9998C8.92511 25.9998 4.00024 21.0749 4.00024 14.9998H2.00024C2.00024 22.1795 7.82054 27.9998 15.0002 27.9998V25.9998ZM26.0002 14.9998C26.0002 21.0749 21.0754 25.9998 15.0002 25.9998V27.9998C22.1799 27.9998 28.0002 22.1795 28.0002 14.9998H26.0002ZM15.0002 3.99982C21.0754 3.99982 26.0002 8.92468 26.0002 14.9998H28.0002C28.0002 7.82012 22.1799 1.99982 15.0002 1.99982V3.99982ZM15.0002 1.99982C7.82054 1.99982 2.00024 7.82012 2.00024 14.9998H4.00024C4.00024 8.92468 8.92511 3.99982 15.0002 3.99982V1.99982ZM20.045 16.8497C20.5675 16.5095 21.1605 15.9445 21.1594 15.1253C21.1583 14.2836 20.537 13.736 19.9997 13.4256L18.999 15.1572C19.0704 15.1984 19.1213 15.2344 19.1561 15.2628C19.1911 15.2913 19.2052 15.3083 19.2073 15.311C19.209 15.3132 19.1965 15.2979 19.1836 15.2639C19.1771 15.2469 19.1709 15.2263 19.1664 15.2026C19.1619 15.1788 19.1595 15.1537 19.1594 15.128C19.1594 15.1023 19.1618 15.0782 19.1658 15.0564C19.1698 15.0347 19.1751 15.0168 19.1802 15.003C19.1902 14.9758 19.1983 14.9674 19.1912 14.977C19.1838 14.9869 19.1642 15.0108 19.1243 15.0462C19.0846 15.0815 19.0291 15.1246 18.9538 15.1735L20.045 16.8497ZM20.0923 13.4861L13.1981 8.40953L12.0122 10.02L18.9064 15.0966L20.0923 13.4861ZM13.1402 8.37C12.5982 8.02662 11.8641 7.84652 11.1842 8.16398C10.449 8.50722 10.1449 9.25199 10.16 9.99344L12.1596 9.95262C12.1574 9.84685 12.1783 9.82705 12.1633 9.85575C12.1556 9.87049 12.1407 9.89321 12.1156 9.9174C12.0905 9.94171 12.0611 9.96179 12.0303 9.97617C11.9673 10.0056 11.928 9.99866 11.9363 9.99982C11.9459 10.0012 11.9933 10.011 12.07 10.0595L13.1402 8.37ZM10.1598 9.97593L10.1887 19.9481L12.1887 19.9423L12.1598 9.97013L10.1598 9.97593ZM10.1905 20.0046C10.2284 20.6414 10.4462 21.4189 11.1687 21.8048C11.8808 22.1851 12.6399 21.9452 13.1712 21.6511L12.2028 19.9012C12.1344 19.9391 12.0791 19.9636 12.037 19.979C12.0162 19.9865 11.9996 19.9915 11.987 19.9948C11.9744 19.998 11.9665 19.9993 11.9631 19.9998C11.9559 20.0008 11.9692 19.998 11.9979 20.0023C12.0123 20.0044 12.0299 20.0081 12.0497 20.0145C12.0695 20.021 12.0902 20.0296 12.1109 20.0406C12.1315 20.0517 12.1505 20.0642 12.1675 20.0776C12.1844 20.091 12.198 20.1042 12.2085 20.116C12.2297 20.1395 12.2358 20.1542 12.2335 20.1493C12.231 20.1439 12.2215 20.1218 12.2114 20.0766C12.2014 20.0317 12.1919 19.969 12.1869 19.8857L10.1905 20.0046ZM13.2602 21.5956L20.0725 16.8311L18.9263 15.1921L12.1139 19.9567L13.2602 21.5956Z" fill="white"/>
</svg>
